<?xml version="1.0" encoding="UTF-8"?>
<svg id="Layer_1" data-name="Layer 1" xmlns="http://www.w3.org/2000/svg" viewBox="0 0 76.76 61.45">
  <defs>
    <style>
      .cls-1 {
        fill: #fff;
      }
    </style>
  </defs>
  <path class="cls-1" d="M27.56,45.67c1.31,0,2.61,0,3.92,0,.8,0,1.23-.29,1.24-.83.01-.54-.43-.86-1.21-.86-2.6,0-5.19,0-7.79,0-.09,0-.18,0-.27,0-.57.04-.95.39-.94.85,0,.45.38.78.92.82.12,0,.25,0,.38,0,1.25,0,2.51,0,3.76,0M27.64,36.93h-.54c-1.18,0-2.36,0-3.54,0-.65,0-1.06.35-1.06.85,0,.5.42.82,1.07.83.04,0,.07,0,.11,0h7.84c.23,0,.46,0,.68-.1.31-.14.49-.39.5-.72,0-.36-.18-.62-.51-.77-.22-.1-.45-.09-.69-.09h-3.87M28.48,42.14c1.56,0,3.12,0,4.67,0,.84,0,1.28-.29,1.29-.83,0-.55-.44-.85-1.27-.85-3.13,0-6.27,0-9.4,0-.16,0-.32,0-.48.02-.46.07-.81.44-.77.84.04.46.32.72.76.8.17.03.36.02.54.02,1.56,0,3.12,0,4.67,0M29.27,49.2c1.88,0,3.76,0,5.64,0,.8,0,1.23-.29,1.25-.82.02-.55-.43-.86-1.26-.86-3.71,0-7.42,0-11.12,0-.16,0-.33,0-.48.02-.46.08-.78.34-.78.83,0,.49.33.75.79.82.18.03.36.02.54.02,1.81,0,3.62,0,5.43,0M17.24,30.7V9.98c0-1.1.23-1.34,1.28-1.34,2.06,0,4.13.01,6.19,0,.52,0,.9.17,1.16.63.15.25.33.48.48.73.55.88,1.36,1.29,2.36,1.29,1.56.01,3.12.01,4.68,0,1.02,0,1.89-.39,2.37-1.34.53-1.05,1.29-1.39,2.44-1.33,1.84.1,3.69.03,5.54.03.84,0,1.13.3,1.13,1.16,0,5.23,0,10.47,0,15.7,0,.41-.08.67-.49.84-.74.3-1.15.93-1.32,1.7-.07.3-.16.47-.49.54-1.07.24-1.73.92-1.97,2.01-.06.29-.17.44-.47.49-.66.13-1.21.46-1.57,1.06-.18.31-.34.31-.57.06-.94-1-.83-.64-.31-1.78.09-.2.2-.39.29-.59.24-.58.56-1.03,1.19-1.31.88-.39,1.29-1.23,1.3-2.19.01-.98-.42-1.78-1.28-2.27-.33-.18-.48-.39-.55-.78-.53-2.93-2.15-4.99-4.87-6.1-.35-.14-.48-.26-.34-.67.35-1.04.09-1.97-.69-2.71-.75-.71-1.64-.89-2.6-.5-1,.4-1.49,1.21-1.62,2.28-.04.3.02.6.13.86.18.43.07.6-.35.76-1.58.6-2.82,1.66-3.73,3.11-.59.94-.97,1.97-1.12,3.07-.04.31-.16.49-.43.63-.94.49-1.42,1.32-1.38,2.37.04,1.09.59,1.91,1.62,2.32.29.12.47.3.6.58.37.78.78,1.53,1.12,2.32.27.63.7.85,1.35.84,1.54-.03,3.09,0,4.63-.02.37,0,.61.09.75.47.13.37.43.63.69.9,2.35,2.4,4.69,4.8,7.04,7.21.1.1.21.2.3.31.05.07.13.17.11.23-.04.14-.17.09-.27.08-.48-.07-.96-.16-1.44-.21-2.14-.26-4.04,1.46-3.72,4.16.06.5.41.65.82.74,2.16.45,4.32.89,6.48,1.34.88.18,1.75.38,2.64.54.41.07.53.27.52.67-.02.92,0,1.84,0,2.75,0,.89-.28,1.18-1.17,1.18-6.53,0-13.06,0-19.59,0-1.87,0-3.73,0-5.6,0-1.05,0-1.28-.24-1.28-1.34v-20.77"/>
  <path class="cls-1" d="M13.79,30.71c0-7.27,0-14.54,0-21.82,0-2.28,1.45-3.77,3.66-3.77,9.08,0,18.16,0,27.24,0,2.15,0,3.63,1.5,3.63,3.69,0,6.08,0,12.16,0,18.24,0,.13,0,.26,0,.38-.01.22-.12.27-.27.12-.46-.44-.88-.91-1.41-1.28-.21-.15-.11-.45-.11-.68,0-5.2,0-10.39,0-15.59,0-.52-.04-1.03-.26-1.51-.47-1.02-1.3-1.51-2.37-1.52-2.21-.03-4.41-.02-6.62,0-1,0-1.85.41-2.32,1.34-.53,1.05-1.29,1.42-2.44,1.32-1.23-.11-2.48-.04-3.71-.02-.55.01-.93-.19-1.2-.66-.13-.22-.29-.42-.43-.64-.57-.95-1.42-1.35-2.49-1.35-2.1,0-4.2,0-6.3,0-1.72,0-2.8,1.1-2.8,2.86,0,13.94,0,27.88,0,41.82,0,1.73,1.07,2.84,2.76,2.84,8.47,0,16.94,0,25.41,0,1.68,0,2.74-1.11,2.76-2.85,0-.83.01-1.65,0-2.48,0-.36.14-.47.46-.37.34.11.68.22,1.02.34.29.1.3.27.09.48-.23.23-.46.47-.68.7-.59.62-.6.93-.04,1.6.22.26.45.52.69.77.23.23.27.48.2.8-.38,1.7-1.74,2.84-3.44,2.84-9.17,0-18.34,0-27.51,0-2.02,0-3.52-1.55-3.52-3.64,0-7.33,0-14.65,0-21.98"/>
  <path class="cls-1" d="M37.96,43.03c1.13.19,2.36.4,3.6.62.27.05.53.11.79.14.36.04.62-.13.8-.44.18-.31.13-.6-.08-.87-.12-.16-.27-.3-.41-.44-3.02-3.09-6.03-6.19-9.05-9.28-.16-.17-.34-.34-.45-.54-.21-.39-.19-.79.13-1.11.33-.33.73-.4,1.13-.13.18.12.33.28.48.43,1.6,1.63,3.2,3.27,4.79,4.91.11.12.22.24.35.35.35.3.83.32,1.13.04.34-.32.37-.77.02-1.18-.36-.41-.76-.78-1.13-1.18-.41-.44-.43-1-.07-1.37.37-.38.9-.37,1.35.05.37.35.71.73,1.07,1.08.44.42.89.44,1.23.07.31-.33.28-.83-.1-1.23-.35-.37-.72-.72-1.06-1.1-.42-.45-.43-1-.05-1.38.38-.39.89-.37,1.34.06.35.34.68.71,1.04,1.04.43.41.85.43,1.19.08.33-.33.3-.85-.09-1.27-.27-.29-.56-.57-.83-.86-.56-.59-.63-1.1-.22-1.53.41-.42.99-.34,1.55.23,1.45,1.48,2.89,2.96,4.34,4.44,1.16,1.18,2.3,2.37,3.47,3.54.55.54.84,1.18.86,1.95.02,1.01.41,1.86,1.1,2.55.3.3.29.5,0,.8-2.22,2.25-4.42,4.51-6.62,6.77-.26.27-.46.36-.74.04-.74-.84-1.71-1.23-2.78-1.44-3.11-.62-6.22-1.26-9.33-1.9-.76-.16-.86-.38-.44-1.06.36-.6.9-.87,1.7-.87"/>
  <path class="cls-1" d="M57.87,55.45c-1.45,0-2.91-.01-4.36,0-.39,0-.68-.1-.94-.4-1.06-1.22-2.14-2.43-3.21-3.63-.22-.24-.21-.41.02-.65,3.09-3.15,6.17-6.3,9.24-9.46.24-.24.4-.22.62.01,1.15,1.18,2.31,2.36,3.46,3.54.19.2.27.41.27.69,0,3.12,0,6.24,0,9.36,0,.41-.14.55-.53.54-1.52-.02-3.05,0-4.57,0"/>
  <path class="cls-1" d="M31.26,19.32c-.53-.04-.96.3-1,.77-.03.46.34.87.9.88.75.02,1.41.27,1.99.72.28.22.51.51.77.76.24.22.5.35.83.21.32-.13.5-.37.53-.7.04-.33-.16-.59-.36-.83-.97-1.13-2.21-1.71-3.67-1.82M31.07,23.71c-1.83,0-3.66-.01-5.49,0-.47,0-.55-.17-.46-.59.56-2.71,3.05-4.71,5.78-4.8,2.65-.09,5.36,1.78,6.07,4.77.11.44.02.63-.47.62-1.81-.02-3.62,0-5.43,0"/>
  <path class="cls-1" d="M31.11,25.4c2.24,0,4.48,0,6.72,0,.46,0,.82.17.96.63.13.4.03.76-.31,1.03-.19.16-.42.18-.66.18-4.52,0-9.03,0-13.55,0-.65,0-1.02-.37-1.01-.95.01-.55.38-.89,1.01-.89,2.28,0,4.55,0,6.83,0"/>
  <path class="cls-1" d="M31.06,28.92c1.65,0,3.3,0,4.95,0,.57,0,.59.04.37.54q-.31.68-.92.22c-1.18-.89-2.78-.63-3.6.62-.23.36-.48.47-.88.47-1.35-.02-2.69-.02-4.04,0-.42,0-.65-.13-.84-.52-.65-1.34-.66-1.33.8-1.33h4.14"/>
  <path class="cls-1" d="M31.06,16.65c-.52,0-.91-.4-.9-.94.01-.51.39-.89.89-.89.52,0,.91.4.9.94-.01.51-.39.89-.89.89"/>
</svg>