<?xml version="1.0" encoding="UTF-8"?>
<svg id="Layer_1" data-name="Layer 1" xmlns="http://www.w3.org/2000/svg" viewBox="0 0 76.76 61.45">
  <defs>
    <style>
      .cls-1 {
        fill: #fff;
      }
    </style>
  </defs>
  <path class="cls-1" d="M28.85,32.77h2.74c3.34,0,6.68,0,10.02,0,1.02,0,1.25-.24,1.25-1.25,0-.65,0-1.3,0-1.96,0-1.13-.14-1.32-1.24-1.28-.67.02-.82-.25-.82-.89.03-2.59.01-5.18.01-7.77,0-1.08-.18-1.27-1.21-1.27-7.17,0-14.34,0-21.5,0-.96,0-1.21.25-1.21,1.23,0,2.55,0,5.09,0,7.64q0,1.01-1.02,1.04c-.78.02-1.02.26-1.03,1.07,0,.7,0,1.39,0,2.09,0,1.11.23,1.35,1.3,1.35,4.23,0,8.47,0,12.7,0M28.7,35.21H11.65c-.92,0-.93,0-.93-.94,0-5.92,0-11.84,0-17.76,0-.86,0-.88.85-.84,1.82.08,3.65-.04,5.12-1.21.97-.77,1.48-.74,2.48,0,2.67,1.96,7.23,1.58,9.64-.63.27-.25.45-.32.73-.03,2.48,2.56,8.24,2.49,10.57,0,.2-.22.37-.31.64-.05,1.46,1.41,3.24,1.95,5.2,1.93.67,0,.82.25.82.88-.02,5.94-.02,11.88,0,17.82,0,.66-.2.86-.84.85-5.74-.02-11.49-.01-17.23-.01"/>
  <path class="cls-1" d="M27.84,36.83c6,0,12,0,18,0,.92,0,.92,0,.92.95,0,2.18-.01,4.35.01,6.53,0,.61-.16.84-.79.84-6.66-.02-13.32-.01-19.98,0-.41,0-.72-.12-1.04-.4-2.72-2.36-6.6-2.37-9.31-.01-.31.27-.62.41-1.03.41-1.64-.02-3.28-.03-4.92,0-.63.01-.8-.23-.8-.84.03-2.2,0-4.4.01-6.6,0-.86.02-.89.85-.89,6.02,0,12.04,0,18.07,0"/>
  <path class="cls-1" d="M52.94,36.55s0,0,0-.01c-.34,0-.68-.03-1.02,0-.48.06-.8.35-.77.86.03.47.33.73.81.73.64,0,1.27,0,1.91,0,.45,0,.71-.24.75-.71.03-.49-.21-.8-.67-.87-.33-.05-.68,0-1.01,0M58.55,34.23c2.19,0,4.38.01,6.58,0,.53,0,1.17.23,1.5-.41.32-.63-.06-1.19-.37-1.7-1.87-3.09-3.76-6.17-5.64-9.25-.73-1.19-1.81-1.74-3.16-1.75-1.96-.01-3.92,0-5.87,0-.91,0-1.14.22-1.14,1.15,0,3.61,0,7.23,0,10.84,0,.94.19,1.13,1.15,1.13,2.32,0,4.64,0,6.96,0M48.35,33.74c0-4.64,0-9.27,0-13.91,0-.86.01-.87.86-.88,2.7,0,5.4,0,8.11,0,2.23,0,3.98.93,5.17,2.9,1.85,3.05,3.71,6.09,5.57,9.14.55.91.84,1.89.82,2.97-.02,1.48-.04,2.96.01,4.44.02.68-.23.9-.85.84-.36-.03-.72-.01-1.08,0-.99.06-1.75.84-1.8,1.86-.03.67-.02,1.35,0,2.02.03,1.18.81,1.99,1.97,2.04.38.02.77.02,1.15,0,.43-.02.6.14.61.6.04,1.47-.91,2.58-2.36,2.72-.23.02-.47,0-.7.02-.49.05-.75-.13-.93-.64-1.07-3.03-3.69-4.88-6.8-4.87-3.08,0-5.67,1.85-6.75,4.85-.17.49-.41.71-.92.67-.44-.04-.89-.03-1.34,0-.55.04-.75-.17-.74-.75.03-2.11.01-4.22.01-6.33v-7.7"/>
  <path class="cls-1" d="M61.38,50.31c0-1.81-1.48-3.32-3.25-3.33-1.8-.01-3.33,1.58-3.3,3.43.03,1.81,1.51,3.28,3.3,3.27,1.83,0,3.26-1.5,3.25-3.37M58.06,56.1c-3.04-.01-5.6-2.65-5.6-5.77,0-3.11,2.58-5.75,5.62-5.76,3.07-.02,5.68,2.65,5.66,5.79-.02,3.17-2.58,5.76-5.68,5.75"/>
  <path class="cls-1" d="M20.29,53.68c1.82,0,3.29-1.5,3.29-3.35,0-1.82-1.53-3.37-3.31-3.35-1.78.02-3.23,1.52-3.24,3.35-.01,1.86,1.44,3.36,3.27,3.36M20.25,56.1c-3.08-.03-5.63-2.7-5.59-5.85.04-3.11,2.68-5.75,5.69-5.68,3.08.07,5.62,2.69,5.59,5.8-.03,3.16-2.61,5.77-5.69,5.74"/>
  <path class="cls-1" d="M34.67,10.4c-1.34,0-2.68-.01-4.02,0-.49,0-.69-.15-.68-.67.02-1.24.02-2.48,0-3.72,0-.52.21-.68.69-.67,2.13.02,4.25.02,6.38,0,.45,0,.64.2.77.6.42,1.28.85,2.55,1.31,3.81.18.49.09.66-.44.65-1.34-.02-2.68,0-4.02,0"/>
  <path class="cls-1" d="M23.75,10.4c-1.36,0-2.72,0-4.08,0-.45,0-.56-.16-.41-.59.46-1.31.92-2.62,1.35-3.94.13-.4.36-.53.75-.53,2.13.01,4.25.02,6.38,0,.51,0,.66.2.65.7-.02,1.24-.02,2.48,0,3.72,0,.48-.17.65-.63.64-1.34-.02-2.68,0-4.02,0"/>
  <path class="cls-1" d="M45.48,10.4c-1.28,0-2.55-.02-3.83,0-.45,0-.7-.13-.84-.59-.41-1.28-.86-2.55-1.31-3.81-.18-.5-.06-.67.46-.66,2.08.01,4.17.01,6.25,0,.35,0,.6.12.8.42.92,1.36,1.86,2.7,2.79,4.06.09.14.26.28.17.46-.09.18-.3.11-.46.11-1.34,0-2.68,0-4.02,0"/>
  <path class="cls-1" d="M12.9,10.4c-1.34,0-2.68,0-4.02,0-.46,0-.61-.1-.3-.54.95-1.36,1.89-2.73,2.83-4.1.2-.3.46-.41.81-.41,2.06,0,4.12.01,6.18,0,.53,0,.69.15.5.69-.46,1.26-.9,2.53-1.32,3.81-.14.42-.36.57-.79.56-1.3-.02-2.59,0-3.89,0"/>
  <path class="cls-1" d="M36.72,46.75c3.08,0,6.17,0,9.25,0,.76,0,.79.04.79.89,0,.83-.04.88-.8.88-5.98,0-11.95,0-17.93,0-.59,0-1.35-.93-1.27-1.54.02-.18.13-.21.26-.21.19-.01.38-.01.57-.01,3.04,0,6.08,0,9.12,0"/>
  <path class="cls-1" d="M46.12,12.03c1.29,0,2.59,0,3.88,0,.18,0,.43-.06.5.17.07.2-.12.35-.26.49-.8.79-1.81,1.14-2.87,1.28-1.78.23-3.52.12-5.07-.98-.27-.19-.7-.43-.6-.76.11-.39.59-.19.91-.2,1.17-.02,2.34,0,3.5,0"/>
  <path class="cls-1" d="M23.62,12.03c1.29,0,2.59,0,3.88,0,.16,0,.37-.06.46.13.11.22-.09.36-.22.49-.81.82-1.83,1.17-2.92,1.32-1.65.24-3.26.11-4.75-.76-.4-.23-1-.53-.91-.97.1-.44.74-.18,1.13-.19,1.1-.03,2.21-.01,3.31-.01"/>
  <path class="cls-1" d="M12.39,12.03c1.29,0,2.59,0,3.88,0,.16,0,.37-.06.45.15.07.19-.1.32-.21.44-.87.89-1.98,1.25-3.16,1.39-1.34.16-2.67.06-3.94-.48-.46-.19-.87-.45-1.22-.8-.15-.15-.39-.29-.31-.52.08-.26.36-.16.56-.17,1.32,0,2.63,0,3.95,0"/>
  <path class="cls-1" d="M34.79,12.03c1.32,0,2.63,0,3.95,0,.18,0,.43-.07.5.16.07.21-.13.35-.27.48-.8.83-1.84,1.15-2.92,1.3-1.74.24-3.44.1-4.95-.94-.31-.21-.78-.45-.67-.85.1-.34.6-.15.92-.16,1.15-.02,2.29,0,3.44,0"/>
  <path class="cls-1" d="M11.16,48.52c-.53,0-1.06-.01-1.59,0-.45.02-.65-.15-.66-.64-.03-1.1-.02-1.13,1.06-1.13,1.1,0,2.2.01,3.3,0,.47,0,.67.08.45.62-.47,1.14-.45,1.15-1.67,1.15-.3,0-.59,0-.89,0"/>
  <path class="cls-1" d="M68.88,42.18c-.03,1.51.26,1.37-1.42,1.39-.5,0-.75-.21-.77-.72,0-.17-.01-.35-.01-.52,0-1.51.08-1.58,1.54-1.54.53.01.73.22.67.74-.02.21,0,.43,0,.65"/>
  <path class="cls-1" d="M28.86,19.97c3.17,0,6.34,0,9.51,0,.87,0,.87,0,.87.91,0,2.2-.02,4.4.01,6.6,0,.61-.2.79-.77.79-6.41-.01-12.81-.01-19.22,0-.56,0-.8-.15-.79-.77.03-2.26.03-4.53,0-6.79,0-.58.2-.75.75-.74,3.21.02,6.43,0,9.64,0"/>
  <path class="cls-1" d="M28.79,31.16c-3.87,0-7.74,0-11.62,0-.54,0-.78-.15-.75-.74.02-.42.19-.59.58-.59.15,0,.3,0,.45,0,7.64,0,15.28,0,22.92,0,.32,0,.77-.18.91.35.18.69-.04.98-.73.98-3.91,0-7.83,0-11.74,0"/>
  <path class="cls-1" d="M58.29,32.61c-1.87,0-3.75-.01-5.62,0-.53,0-.71-.19-.71-.72.01-2.83.01-5.66,0-8.49,0-.5.18-.7.68-.69,1.62.02,3.23,0,4.85,0,.78,0,1.39.33,1.81,1.02,1.66,2.73,3.33,5.47,4.99,8.2.1.16.29.33.19.52-.12.23-.38.13-.58.13-1.87,0-3.75,0-5.62,0"/>
  <path class="cls-1" d="M58.13,52.06c-.93,0-1.71-.77-1.72-1.72,0-.93.79-1.75,1.71-1.74.9,0,1.66.78,1.68,1.7.02.96-.73,1.75-1.67,1.76"/>
  <path class="cls-1" d="M21.99,50.31c.01.95-.75,1.75-1.68,1.76-.94,0-1.7-.76-1.7-1.72,0-.92.74-1.7,1.64-1.74.91-.03,1.73.77,1.74,1.7"/>
</svg>