<?xml version="1.0" encoding="UTF-8"?>
<svg id="Layer_1" data-name="Layer 1" xmlns="http://www.w3.org/2000/svg" viewBox="0 0 76.76 61.45">
  <defs>
    <style>
      .cls-1 {
        fill: #fff;
      }
    </style>
  </defs>
  <path class="cls-1" d="M43.12,18.51c-9.16-.09-16.84,7.56-16.83,17.16.01,9.51,7.54,17.16,16.86,17.15,9.17-.01,16.64-7.71,16.68-17.1.04-9.44-7.46-17.27-16.71-17.21M63.43,35.7c-.1,11.43-8.9,20.77-20.38,20.78-11.34.02-20.37-9.2-20.35-20.9.02-11.76,9.27-20.7,20.27-20.76,11.3-.06,20.44,9.3,20.46,20.88"/>
  <path class="cls-1" d="M49.1,4.97c.09.03.27.07.44.14,3.62,1.6,7.23,3.19,10.85,4.8,1.16.52,1.26.82.76,2.02-.17.4-.33.81-.52,1.2-.32.68-.75.84-1.47.53-2.54-1.12-5.08-2.25-7.62-3.37-1.18-.52-2.36-1.04-3.53-1.57-.76-.35-.91-.77-.59-1.56.22-.54.45-1.08.7-1.62.17-.38.47-.58.98-.57"/>
  <path class="cls-1" d="M15.04,35.04c.93,0,1.86,0,2.79,0,.26,0,.52,0,.76.12.38.18.57.48.55.91-.03.42-.26.71-.66.83-.23.07-.48.09-.72.09-1.88,0-3.75,0-5.63,0-.04,0-.07,0-.11,0-.78-.04-1.2-.38-1.2-.98,0-.6.43-.95,1.21-.96,1-.01,2.01,0,3.01,0"/>
  <path class="cls-1" d="M64.19,22.28c.19-.03.25.12.32.25.46.93.9,1.87,1.36,2.8.13.26.07.42-.18.54-.67.33-1.33.66-1.99,1-.23.12-.38.06-.49-.17-.44-.96-.89-1.92-1.44-2.82-.1-.16-.13-.33.07-.43.75-.38,1.49-.76,2.24-1.13.03-.02.07-.02.11-.04"/>
  <path class="cls-1" d="M17.33,30.6c-.58,0-1.15.02-1.73,0-.66-.03-1.07-.4-1.09-.92-.02-.55.39-.98,1.06-1,1.21-.03,2.41-.03,3.62,0,.64.02,1.04.44,1.03.97-.01.53-.41.9-1.06.94-.31.02-.63.01-.95.01-.3,0-.59,0-.89,0h0Z"/>
  <path class="cls-1" d="M54.62,13.69c-.15.36-.33.77-.51,1.19-.44,1.06-.44,1.05-1.45.56-.67-.32-1.35-.62-2.04-.9-.32-.13-.45-.27-.29-.63.25-.53.46-1.08.69-1.62.1-.24.24-.36.52-.24.95.43,1.9.85,2.85,1.28.12.05.23.12.23.35"/>
  <path class="cls-1" d="M17.35,43.31c-.61,0-1.23.01-1.84,0-.6-.01-.99-.39-1-.92,0-.52.39-.95.97-.96,1.24-.02,2.49-.02,3.73,0,.62.01,1.03.46,1,.99-.03.53-.42.88-1.03.89-.61.01-1.23,0-1.84,0"/>
  <path class="cls-1" d="M20.48,22.34c.35,0,.7-.01,1.05,0,.49.03.79.29.86.8.06.5-.18.94-.68,1.02-.88.14-1.77.15-2.65,0-.48-.09-.7-.49-.65-.98.05-.5.35-.79.84-.82.41-.03.81,0,1.22,0"/>
  <path class="cls-1" d="M20.4,49.69c-.37,0-.74.02-1.11,0-.54-.04-.87-.41-.88-.91-.01-.53.33-.93.89-.96.74-.03,1.48-.03,2.22,0,.56.03.9.44.88.97-.02.52-.38.88-.95.91-.35.02-.7,0-1.06,0h0Z"/>
  <path class="cls-1" d="M48.67,24.15c0-.45-.33-.8-.75-.81-.42,0-.77.34-.78.78-.01.47.33.85.78.84.42,0,.75-.36.75-.81M47.59,48.06c.45,0,.78-.34.78-.77,0-.47-.36-.8-.83-.79-.45.01-.74.34-.73.81.01.47.32.76.78.76M31.68,41.07c.44,0,.78-.32.78-.77,0-.46-.3-.78-.75-.79-.46-.02-.84.35-.83.79,0,.41.37.76.8.77M39.29,24.03c0-.47-.3-.8-.74-.81-.45-.01-.79.35-.78.83,0,.43.37.8.78.79.41,0,.75-.37.75-.82M39.02,47.14c0-.43-.36-.77-.8-.77-.49,0-.8.33-.78.82.02.46.33.75.8.74.43,0,.78-.37.78-.79M32.58,30.71c0-.47-.3-.78-.76-.79-.46-.01-.83.36-.81.81.02.43.37.76.81.76.47,0,.76-.31.77-.78M54.43,31.82c.43,0,.78-.35.79-.79,0-.43-.34-.82-.76-.83-.43-.02-.82.39-.83.83,0,.43.36.79.79.79M54.3,39.78c-.41,0-.77.35-.78.79-.01.46.34.84.79.84.42,0,.78-.35.8-.78.02-.44-.36-.84-.8-.84M40.48,35.56c.09,1.06.5,1.97,1.49,2.48.97.5,1.95.46,2.85-.18.33-.24.59-.27.96-.1,1.2.56,2.41,1.09,3.63,1.61.65.28,1.29-.12,1.23-.73-.04-.4-.3-.63-.65-.78-1.16-.51-2.31-1.04-3.48-1.54-.37-.16-.57-.36-.54-.8.06-.75-.23-1.38-.74-1.9-.25-.25-.31-.47-.16-.8.31-.67.59-1.35.87-2.04.23-.56.08-1.01-.35-1.21-.44-.2-.86,0-1.11.56-.28.62-.56,1.24-.79,1.88-.17.48-.45.71-.95.8-1.32.24-2.23,1.38-2.26,2.76M58.2,35.7c0,8.58-6.79,15.49-15.22,15.49-8.32,0-15.1-6.99-15.1-15.57,0-8.36,6.55-15.51,15.23-15.47,9.05.04,15.19,7.66,15.08,15.55"/>
  <path class="cls-1" d="M43.28,36.7c-.67,0-1.12-.45-1.13-1.13-.01-.67.52-1.22,1.15-1.2.6.02,1.12.57,1.12,1.19,0,.65-.49,1.14-1.13,1.14"/>
</svg>