<?xml version="1.0" encoding="UTF-8"?>
<svg id="Layer_1" data-name="Layer 1" xmlns="http://www.w3.org/2000/svg" viewBox="0 0 76.76 61.45">
  <defs>
    <style>
      .cls-1 {
        fill: #fff;
      }
    </style>
  </defs>
  <path class="cls-1" d="M38.42,19.99c5.28,0,10.56,0,15.84,0,1.06,0,1.81.55,2.03,1.48.28,1.13-.44,2.23-1.59,2.39-1.02.15-2.05.04-3.08.07-.39,0-.79.05-1.17,0-1.49-.22-2.65.32-3.77,1.34-1.86,1.68-3.83,3.23-5.79,4.81-.47.38-.64.77-.64,1.38.03,3.45.03,6.89,0,10.34,0,.59.15.78.74.82,3.68.26,6.53,3.26,6.53,6.84,0,1.15-.72,2.01-1.78,2.12-.97.1-1.87-.67-2.02-1.79-.11-.78-.2-1.54-.74-2.16-.57-.66-1.28-1.03-2.14-1.09-.41-.03-.6.11-.59.57.02.84.01,1.68,0,2.52-.01,1.16-.86,2.05-1.92,2.03-1.06-.02-1.85-.86-1.87-2.01-.01-.82-.03-1.64,0-2.46.03-.55-.2-.68-.69-.65-1.24.08-2.41,1.07-2.67,2.33-.06.31-.1.62-.13.93-.11,1.01-.95,1.79-1.92,1.77-1-.02-1.82-.85-1.86-1.9-.15-3.32,2.49-6.53,5.75-6.99q1.52-.21,1.52-1.8c0-3.19-.01-6.39.01-9.58,0-.52-.16-.86-.55-1.18-2.36-1.93-4.7-3.87-7.05-5.82-.34-.28-.7-.39-1.13-.39-1.68.01-3.37.02-5.05,0-1.22-.02-1.94-.5-2.22-1.42-.36-1.15.46-2.39,1.67-2.5.22-.02.45-.01.68-.01,5.2,0,10.39,0,15.59,0"/>
  <path class="cls-1" d="M6.78,31.35c0-5.99,0-11.97,0-17.96,0-.29,0-.59.07-.87.22-.9,1.15-1.55,2-1.44,1.01.13,1.71.91,1.72,1.97,0,3.68,0,7.35,0,11.03,0,1.43.02,2.86-.01,4.29-.01.57.18.71.71.71,2.24-.03,4.48.07,6.71-.03,3.89-.18,7.7,2.74,7.7,7.74,0,4.14,0,8.28,0,12.41,0,1.01-.23,1.89-1.25,2.31-1.26.52-2.59-.42-2.6-1.86-.02-2.58,0-5.17,0-7.75q0-.89-.88-.89c-3.18,0-6.37,0-9.55,0q-.82,0-.83.82c0,2.63,0,5.25,0,7.88,0,1.03-.69,1.8-1.68,1.94-.88.12-1.75-.47-2.03-1.38-.09-.29-.07-.58-.07-.87,0-6.01,0-12.02,0-18.02"/>
  <path class="cls-1" d="M69.98,31.39c0,6.05,0,12.1,0,18.15,0,1.43-1.12,2.37-2.38,2.03-.83-.22-1.39-.98-1.4-1.92,0-2.63-.02-5.25,0-7.88,0-.6-.15-.8-.76-.79-3.27.03-6.53.03-9.8,0-.57,0-.74.17-.74.75.03,2.56,0,5.13.01,7.69,0,.78-.22,1.45-.89,1.89-1.07.71-2.46.2-2.85-1.04-.1-.32-.13-.66-.13-.99,0-4.1.02-8.19.02-12.29,0-2.63.83-4.86,2.94-6.48,1.23-.95,2.63-1.45,4.18-1.45,2.42,0,4.85-.02,7.27,0,.56,0,.74-.16.74-.74-.02-4.98-.01-9.96,0-14.94,0-.29,0-.59.07-.87.22-.9,1.15-1.55,2-1.44,1.01.13,1.71.91,1.72,1.97.01,2.79,0,5.59,0,8.38,0,3.32,0,6.64,0,9.96"/>
  <path class="cls-1" d="M29.4,16.36c-1.52,0-3.04,0-4.55,0q-1.04,0-1.04-1.03c0-1.11,0-2.22,0-3.34.01-1.31.77-2.15,2.06-2.18,2.38-.04,4.76-.04,7.14,0,1.27.02,2.03.86,2.06,2.19.02,1.2-.01,2.39.01,3.59.01.57-.2.78-.75.78-1.64-.02-3.28,0-4.92,0"/>
  <path class="cls-1" d="M47.29,16.36c-1.6,0-3.2,0-4.8,0-.74,0-.8-.06-.8-.84,0-1.15-.01-2.31,0-3.46.02-1.41.81-2.24,2.19-2.25,2.3-.02,4.6-.02,6.89,0,1.38.01,2.17.85,2.18,2.25,0,1.17-.02,2.35.01,3.52.02.58-.2.78-.75.78-1.64-.02-3.28,0-4.92,0"/>
</svg>