<?xml version="1.0" encoding="utf-8"?>
<!-- Generator: Adobe Illustrator 16.0.0, SVG Export Plug-In . SVG Version: 6.00 Build 0)  -->
<!DOCTYPE svg PUBLIC "-//W3C//DTD SVG 1.1//EN" "http://www.w3.org/Graphics/SVG/1.1/DTD/svg11.dtd">
<svg version="1.1" id="Layer_1" xmlns="http://www.w3.org/2000/svg" xmlns:xlink="http://www.w3.org/1999/xlink" x="0px" y="0px"
	 width="700.714px" height="214.287px" viewBox="0 0 700.714 214.287" enable-background="new 0 0 700.714 214.287"
	 xml:space="preserve">
<g>
	<polygon fill-rule="evenodd" clip-rule="evenodd" fill="#004B8E" points="694.451,94.75 616.931,112.658 666.62,121.119 
		672.604,169.32 	"/>
	<g>
		<path fill-rule="evenodd" clip-rule="evenodd" fill="#004B8E" d="M82.744,115.502c-7.121-2.447-15.977-4.571-23.572-4.571
			c-27.086,0-48.276,21.476-48.276,48.331c0,26.251,20.586,46.627,46.922,46.627c6.005,0,19.525-0.594,24.926-3.158L82.7,167.812
			c-5.39,5.248-11.524,8.537-19.232,8.537c-10.048,0-18.764-7.807-18.764-17.945c0-10.006,8.22-17.938,18.263-17.938
			c7.606,0,14.344,4.263,19.733,9.276L82.744,115.502z"/>
		<path fill-rule="evenodd" clip-rule="evenodd" fill="#004B8E" d="M144.782,138.142c-10.656-0.237-16.413,1.59-22.062,10.145
			h-0.723l0.086-8.518l-30.968-0.161v64.821h31.604v-24.904c0-8.06,4.166-12.933,12.376-12.933c4.048,0,6.382,1.585,9.686,3.537
			V138.142z"/>
		<path fill-rule="evenodd" clip-rule="evenodd" fill="#004B8E" d="M225.25,177.331c1.585-24.29-16.662-39.188-39.835-39.188
			c-20.699,0-37.371,13.433-37.371,34.918c0,22.327,18.747,32.828,39.214,32.828c14.942,0,32.478-7.189,36.638-22.828h-30.758
			c-0.614,3.056-3.056,5.363-6.36,5.363c-6.63,0-7.492-5.854-7.492-11.093H225.25z M179.286,163.897c0-4.517,2.34-8.42,7.115-8.42
			c4.533,0,7.719,4.033,7.719,8.42H179.286z"/>
		<rect x="320.158" y="139.608" fill-rule="evenodd" clip-rule="evenodd" fill="#004B8E" width="31.609" height="64.821"/>
		<g>
			<path fill-rule="evenodd" clip-rule="evenodd" fill="#004B8E" d="M335.991,104.863c-8.361,0-14.652,5.615-14.652,14.86
				c0,10.441,7.013,14.996,14.652,14.996c7.632,0,14.65-4.555,14.65-14.996C350.642,110.478,344.352,104.863,335.991,104.863z"/>
		</g>
		<path fill-rule="evenodd" clip-rule="evenodd" fill="#004B8E" d="M270.929,162.803c4.78,0,8.209,4.403,8.209,8.909
			c0,4.389-3.314,9.52-8.209,9.52c-5.272,0-8.081-4.397-8.081-9.271C262.848,167.207,265.656,162.803,270.929,162.803z M280,204.429
			h29.653v-98.996h-31.616v27.34l0.173,16.128c-4.431-5.993-12.062-10.759-19.405-10.759c-18.381,0-27.086,18.305-27.086,34.424
			c0,15.502,9.309,33.322,26.958,33.322c8.457,0,15.927-4.518,21.199-11.104h0.732L280,204.429z"/>
	</g>
	<g>
		<path fill-rule="evenodd" clip-rule="evenodd" fill="#C4161C" d="M504.915,170.053c0.742-5.046,4.531-9.466,9.479-9.466
			s7.747,3.881,6.967,9.202c-0.782,5.329-3.946,10.397-9.845,10.397C505.837,180.187,504.112,175.513,504.915,170.053z
			 M515.226,204.863h30.532l10.159-68.963h-30.529l-0.231,8.183h-0.739c-3.584-6.749-9.54-9.735-17.255-9.735
			c-18.112,0-30.672,18.952-33.226,36.363c-2.47,16.743,4.392,35.706,21.767,35.706c8.801,0,14.488-4.15,21.118-10.641h0.723
			L515.226,204.863z"/>
		<polygon fill-rule="evenodd" clip-rule="evenodd" fill="#C4161C" points="563.308,135.9 582.675,169.012 550.501,204.863 
			588.018,204.863 594.399,195.118 597.138,189.664 597.742,189.664 599.11,195.118 602.745,204.863 639.297,204.863 
			618.507,169.012 647.629,135.9 611.931,135.9 606.803,144.48 603.536,150.326 602.923,150.326 601.743,144.48 599.024,135.9 		"/>
		<path fill-rule="evenodd" clip-rule="evenodd" fill="#C4161C" d="M320.072,204.751h31.372c0,0,39.501-49.598,41.603-53.495
			l-10.685,53.63l21.795-0.228l31.652-43.661c2.458-3.117,6.501-8.508,8.651-11.74h0.608l-11.302,55.883l27.894,0.383l19.54-98.607
			l-28.979,0.069l-28.633,38.434c-3.076,4.156-5.837,8.69-8.507,12.985h-0.834l9.643-51.488l-28.956,0.026L320.072,204.751z"/>
	</g>
	<path fill-rule="evenodd" clip-rule="evenodd" fill="#768CBB" d="M180.385,49.286l-0.323-0.301l-1.639-1.483l0.388,0.415
		L180.385,49.286z M181.965,50.753l-1.58-1.467L181.965,50.753z M196.498,73.5h-6.184V58.45c-3.293-3.018-6.075-5.583-8.349-7.697
		l-1.58-1.467l-1.574-1.369c-3.688-3.19-5.703-4.786-6.059-4.786c-1.154,0-1.725,0.344-1.725,1.023c0,1.175,2.468,3.536,7.395,7.072
		l0.987,0.884l0.415,0.367c1.789,1.627,2.943,2.674,3.455,3.142c2.398,2.724,3.606,5.29,3.606,7.694
		c0,3.018-1.499,5.471-4.463,7.351c-2.992,1.888-6.76,2.836-11.353,2.836c-4.468,0-8.419-1.025-11.853-3.062
		c-3.316-2.102-4.993-4.63-4.993-7.579c0-3.655,2.437-7.26,7.283-10.782l3.601,3.613c-0.301,0.268-0.603,0.549-0.905,0.841
		c-2.522,2.263-3.789,4.22-3.789,5.874c0,1.748,0.987,3.288,2.921,4.647c1.951,1.283,4.243,1.919,6.878,1.919
		c6.759,0,10.161-1.994,10.134-5.993c-0.016-2.966-2.474-5.364-2.474-5.364l-2.113-1.757c-1.326-1.247-2.948-2.614-4.851-4.082
		l-1.262-1.051c-2.059-1.968-3.094-3.508-3.094-4.646c0-1.575,0.744-2.862,2.237-3.855c1.487-1.045,3.379-1.573,5.665-1.573
		c2.641,0,4.981,0.756,7.062,2.265l3.023,2.862l2.944,3.131l9.013,8.646V73.5z"/>
	<path fill-rule="evenodd" clip-rule="evenodd" fill="#768CBB" d="M178.289,78.142c0,0.527-0.394,1.008-1.202,1.465
		c-0.69,0.448-1.423,0.686-2.231,0.686c-2.064,0-3.1-0.729-3.1-2.151c0-1.451,1.094-2.15,3.272-2.15c0.678,0,1.368,0.226,2.059,0.68
		C177.896,77.188,178.289,77.684,178.289,78.142z"/>
	<path fill-rule="evenodd" clip-rule="evenodd" fill="#768CBB" d="M171.416,78.142c0,0.527-0.394,1.008-1.202,1.465
		c-0.685,0.448-1.429,0.686-2.232,0.686c-2.297,0-3.434-0.729-3.434-2.151c0-0.458,0.345-0.954,1.024-1.471
		c0.798-0.454,1.542-0.68,2.232-0.68c0.809,0,1.606,0.226,2.41,0.68C171.022,77.188,171.416,77.684,171.416,78.142z"/>
	<path fill-rule="evenodd" clip-rule="evenodd" fill="#768CBB" d="M231.725,73.5h-27.147v-4.064h15.126V47.896
		c0-1.208-1.606-2.274-4.819-3.18c-2.641-0.749-5.04-1.12-7.207-1.12c1.823-1.673,3.197-2.491,4.119-2.491
		c3.315,0,6.349,0.56,9.104,1.703c3.321,1.348,4.986,3.04,4.986,5.088v21.541h5.839V73.5z"/>
	<path fill-rule="evenodd" clip-rule="evenodd" fill="#768CBB" d="M244.267,73.5h-15.799v-4.064h9.611V41.352h6.188V73.5z
		 M243.237,79.71c0,1.439-1.143,2.156-3.434,2.156c-2.068,0-3.088-0.717-3.088-2.156c0-1.423,1.078-2.136,3.255-2.136
		C242.149,77.574,243.237,78.287,243.237,79.71z M236.37,79.71c0,0.54-0.404,1.024-1.207,1.487c-0.69,0.438-1.429,0.669-2.232,0.669
		c-2.068,0-3.094-0.755-3.094-2.259c0-1.365,1.025-2.033,3.094-2.033c0.804,0,1.542,0.222,2.232,0.668
		C235.966,78.782,236.37,79.262,236.37,79.71z"/>
	<path fill-rule="evenodd" clip-rule="evenodd" fill="#768CBB" d="M275.02,73.5h-5.147c-1.256,1.725-2.518,3.428-3.779,5.087
		c-1.605,1.439-5.395,2.146-11.341,2.146c-0.464,0-1.148-0.076-2.064-0.221c-0.804-0.076-1.381-0.113-1.709-0.113
		c8.011-1.207,12.02-3.433,12.02-6.678v-32.37h6.184v28.084h5.838V73.5z"/>
	<path fill-rule="evenodd" clip-rule="evenodd" fill="#768CBB" d="M306.294,10.363l-22.676,22.624
		c6.99,0.754,11.454,1.434,13.404,2.049c4.583,1.357,6.867,3.881,6.867,7.572V73.5h-31.274v-4.064h25.087V43.519
		c0-4.226-2.398-6.944-7.207-8.15c-1.261-0.303-6.312-0.68-15.125-1.132l24.569-23.875H306.294z"/>
	<path fill-rule="evenodd" clip-rule="evenodd" fill="#768CBB" d="M39.071,73.5c-2.528,3.925-6.372,5.881-11.525,5.881
		c-4.921,0-8.99-0.794-12.192-2.372c-3.208-1.515-4.803-3.812-4.803-6.905c0.323,1.735,1.719,3.321,4.119,4.759
		c2.409,1.429,4.974,2.173,7.724,2.259c5.045,0.226,8.592-1.25,10.662-4.414c0.464-0.674,1.089-2.571,1.881-5.655L39.071,73.5z"/>
	<path fill-rule="evenodd" clip-rule="evenodd" fill="#768CBB" d="M68.449,73.5h-3.434c-1.725-0.754-2.809-1.434-3.272-2.039
		c-1.375,1.359-3.665,2.039-6.873,2.039c-3.218,0-5.319-0.754-6.366-2.275c-0.9,1.67-2.97,2.497-6.178,2.497
		c-2.749,0-4.98-0.756-6.706-2.26L33.39,73.5V41.352h6.188v28.192c0,0.366,0.345,0.894,1.024,1.573
		c0.701,0.69,1.38,1.014,2.07,1.014c1.94,0,2.921-0.788,2.921-2.371V41.352h6.193v28.192c0,1.725,1.031,2.587,3.083,2.587
		c0.577,0,1.202-0.259,1.888-0.788c0.689-0.527,1.04-0.98,1.04-1.348V41.352h6.183v27.061c0,0.527,0.577,0.861,1.725,1.023h2.744
		V73.5z"/>
	<path fill-rule="evenodd" clip-rule="evenodd" fill="#768CBB" d="M103.147,73.5H66.034v-4.064h25.098V44.419
		c0-4.673-2.178-7.681-6.533-9.05c-2.518-0.745-7.784-1.132-15.804-1.132l24.569-23.875h6.355L77.031,32.771
		c6.533,0.528,11.12,1.316,13.745,2.371c4.355,1.597,6.528,4.302,6.528,8.151v26.143h5.844V73.5z"/>
	<path fill-rule="evenodd" clip-rule="evenodd" fill="#768CBB" d="M121.889,24.556l-12.371,4.156l0.506-2.14
		c2.519-0.993,6.475-2.329,11.864-4.032V24.556z"/>
	<path fill-rule="evenodd" clip-rule="evenodd" fill="#768CBB" d="M137.004,73.5h-15.298c-3.439,0-6.415-1.283-8.926-3.838
		c-2.524,2.249-5.618,3.536-9.288,3.838h-2.906v-4.064h2.744c1.375-0.163,2.744-0.842,4.118-2.048
		c1.365-1.207,2.07-2.436,2.07-3.735V41.492c1.602,0.077,3.606,0.077,6.006,0h6.021c4.005,0,7.557,1.024,10.641,3.062
		c3.212,2.027,4.819,4.376,4.819,7.017V73.5z M130.816,72.363V52.7c0-2.421-1.197-4.653-3.601-6.68
		c-2.421-2.113-5.396-3.17-8.949-3.17h-2.565v20.354c0,2.113,1.261,4.184,3.773,6.232c2.646,1.951,5.562,2.927,8.765,2.927H130.816z
		"/>
</g>
</svg>
